<?xml version="1.0" encoding="UTF-8" standalone="no"?>
<svg
   xmlns:dc="http://purl.org/dc/elements/1.1/"
   xmlns:cc="http://creativecommons.org/ns#"
   xmlns:rdf="http://www.w3.org/1999/02/22-rdf-syntax-ns#"
   xmlns:svg="http://www.w3.org/2000/svg"
   xmlns="http://www.w3.org/2000/svg"
   xmlns:sodipodi="http://sodipodi.sourceforge.net/DTD/sodipodi-0.dtd"
   xmlns:inkscape="http://www.inkscape.org/namespaces/inkscape"
   version="1.1"
   x="0px"
   y="0px"
   viewBox="0 0 100 100"
   enable-background="new 0 0 100 100"
   xml:space="preserve"
   id="svg10"
   sodipodi:docname="noun_wave_282963.svg"
   width="100"
   height="100"
   inkscape:version="0.92.5 (2060ec1f9f, 2020-04-08)"><metadata
     id="metadata16"><rdf:RDF><cc:Work
         rdf:about=""><dc:format>image/svg+xml</dc:format><dc:type
           rdf:resource="http://purl.org/dc/dcmitype/StillImage" /><dc:title /></cc:Work></rdf:RDF></metadata><defs
     id="defs14" /><sodipodi:namedview
     pagecolor="#ffffff"
     bordercolor="#666666"
     borderopacity="1"
     objecttolerance="10"
     gridtolerance="10"
     guidetolerance="10"
     inkscape:pageopacity="0"
     inkscape:pageshadow="2"
     inkscape:window-width="1920"
     inkscape:window-height="1016"
     id="namedview12"
     showgrid="false"
     inkscape:zoom="2.6700352"
     inkscape:cx="71.449501"
     inkscape:cy="39.245932"
     inkscape:window-x="0"
     inkscape:window-y="27"
     inkscape:window-maximized="1"
     inkscape:current-layer="svg10" /><path
     d="m 56.18441,48.6826 c -2.528278,0 -4.675731,-1.651918 -5.446282,-3.952263 h -0.0277 c -0.01583,-0.07789 -0.0277,-0.156796 -0.04649,-0.231653 -0.05243,-0.291337 -0.114742,-0.576604 -0.182994,-0.855801 -1.352173,-5.744793 -4.836963,-9.834632 -8.925136,-9.834632 -3.401701,0 -6.379054,2.844578 -8.065561,7.109421 7.204997,-9.596909 14.018289,-2.56538 13.495027,-2.670585 -0.524252,-0.105205 -6.489839,1.462753 -6.695583,10.028856 -0.205744,8.566104 5.467054,11.073823 7.736173,11.948844 -7.426568,0.354055 -17.328988,-4.741299 -17.123244,-15.611794 0.130568,-6.874733 3.712295,-11.165877 6.330585,-13.396423 0.205744,-0.17905 0.417423,-0.350008 0.633059,-0.517931 0.0455,-0.03541 0.08606,-0.06474 0.130568,-0.09914 0.290811,-0.222549 0.586568,-0.438016 0.893206,-0.63831 0.453032,-0.301452 0.803193,-0.505793 0.961458,-0.591777 0.003,-0.002 0.0069,-0.003 0.0099,-0.0051 0.05638,-0.03035 0.09199,-0.04856 0.09199,-0.04856 0,0 0.002,0.002 0.002,0.003 2.096017,-1.132891 4.486802,-1.779294 7.027939,-1.779294 8.262403,0 14.958975,6.781667 14.958975,15.146465 l -0.003,0.003 c 0.003,0.05361 0.003,0.106216 0.003,0.15983 9.89e-4,3.222911 -2.576746,5.833812 -5.757865,5.833812 z"
     id="path2"
     inkscape:connector-curvature="0"
     style="fill:#4abddf;fill-opacity:1;stroke-width:1.00030673" /><path
     d="m 34.283499,16.456609 c 5.013032,0 9.707557,1.661781 13.724511,4.545743 -0.95948,-0.160623 -1.936764,-0.2512 -2.933831,-0.2512 -11.580025,0 -20.965118,11.348658 -20.965118,25.349401 0,5.21601 1.302716,10.06126 3.537214,14.090112 0.08309,0.142507 0.1642,0.28743 0.247289,0.437183 0.0277,0.04831 0.05242,0.09299 0.08309,0.142507 1.005969,1.784965 2.113822,3.243854 3.311687,4.426182 6.411696,6.330708 15.333865,4.684627 24.824797,2.446779 0.09298,-0.02174 0.188929,-0.04106 0.28092,-0.06763 6.071427,-1.437151 12.365414,-3.083232 18.381448,-3.019224 17.328989,0.188399 21.609058,16.090045 21.609058,16.090045 0,0 -14.956008,-12.347416 -34.142628,-3.367038 -15.778984,7.386229 -27.335269,6.236508 -33.805326,3.513169 -0.107817,-0.04469 -0.213657,-0.05555 -0.309605,-0.08575 -0.19783,-0.05676 -0.367965,-0.105069 -0.516338,-0.149754 -0.287844,-0.08937 -0.476772,-0.153376 -0.566785,-0.187192 -0.01879,-0.0072 -0.03066,-0.01087 -0.04352,-0.01449 -0.0059,0 -0.01286,-0.0036 -0.01286,-0.0036 l -0.003,-0.0036 C 15.663664,76.504133 7.3607062,63.929671 7.3607062,49.008669 c 0,-17.975249 12.0528408,-32.55206 26.9227928,-32.55206 z"
     id="path4"
     inkscape:connector-curvature="0"
     style="fill:#969fdd;fill-opacity:1;stroke-width:1.09297335" /></svg>